<svg width="17" height="17" viewBox="0 0 17 17" fill="none" xmlns="http://www.w3.org/2000/svg">
<path d="M1.6763 9.38809L1.03306 9.9179L1.6763 9.38809ZM15.323 7.61191L14.6798 8.14171L14.6798 8.14171L15.323 7.61191ZM1.6763 7.61191L2.31954 8.14171L2.31954 8.14171L1.6763 7.61191ZM15.323 9.38809L14.6798 8.85829L14.6798 8.85829L15.323 9.38809ZM13.7395 9.90223C13.4165 10.23 13.4203 10.7576 13.7481 11.0807C14.0759 11.4038 14.6035 11.3999 14.9266 11.0721L13.7395 9.90223ZM7.53673 2.74303C7.08209 2.81463 6.77159 3.24123 6.8432 3.69587C6.9148 4.1505 7.34141 4.461 7.79604 4.3894L7.53673 2.74303ZM8.49966 12.6667C7.22816 12.6667 5.98812 12.102 4.88227 11.3064C3.783 10.5155 2.88639 9.54652 2.31954 8.85829L1.03306 9.9179C1.64962 10.6665 2.6498 11.7534 3.90891 12.6593C5.16145 13.5604 6.74138 14.3333 8.49966 14.3333V12.6667ZM8.49966 4.33333C9.77116 4.33333 11.0112 4.898 12.117 5.69361C13.2163 6.48449 14.1129 7.45348 14.6798 8.14171L15.9663 7.0821C15.3497 6.33354 14.3495 5.24658 13.0904 4.3407C11.8379 3.43956 10.2579 2.66667 8.49966 2.66667V4.33333ZM2.31954 8.85829C2.14262 8.6435 2.14262 8.3565 2.31954 8.14171L1.03306 7.0821C0.349223 7.91236 0.349222 9.08764 1.03306 9.9179L2.31954 8.85829ZM15.9663 9.9179C16.6501 9.08764 16.6501 7.91236 15.9663 7.0821L14.6798 8.14171C14.8567 8.3565 14.8567 8.6435 14.6798 8.85829L15.9663 9.9179ZM14.6798 8.85829C14.4296 9.16206 14.1124 9.52384 13.7395 9.90223L14.9266 11.0721C15.3399 10.6527 15.6902 10.2531 15.9663 9.9179L14.6798 8.85829ZM11.6641 11.6139C10.6729 12.2463 9.59719 12.6667 8.49966 12.6667V14.3333C10.0216 14.3333 11.4087 13.7538 12.5606 13.0189L11.6641 11.6139ZM2.31954 8.14171C2.92277 7.40932 3.89685 6.36217 5.08926 5.54852L4.14986 4.17182C2.77605 5.10925 1.68727 6.28782 1.03306 7.0821L2.31954 8.14171ZM7.79604 4.3894C8.02908 4.35269 8.26373 4.33333 8.49966 4.33333V2.66667C8.17228 2.66667 7.85087 2.69355 7.53673 2.74303L7.79604 4.3894Z" fill="#4F5387"/>
<path d="M1 1L16 16" stroke="#4F5387" stroke-width="1.66667" stroke-linecap="round" stroke-linejoin="round"/>
<path d="M7.8537 10.9143C7.42982 10.8007 7.04329 10.5775 6.73299 10.2672C6.42268 9.9569 6.19952 9.57037 6.08594 9.14648" stroke="#4F5387" stroke-width="1.66667" stroke-linecap="round"/>
</svg>
