<svg width="235" height="45" viewBox="0 0 235 45" fill="none" xmlns="http://www.w3.org/2000/svg">
<g filter="url(#filter0_f_1:1066)">
<path fill-rule="evenodd" clip-rule="evenodd" d="M14.1827 41.6506L14.1922 41.939C13.5628 41.8905 12.8782 41.614 12.1678 41.1082L11.1046 40.2112C9.08872 38.5107 7.37792 37.0674 5.2373 35.261C4.58158 34.7084 3.9294 33.8505 3.74363 32.9968L3.09683 30.8812L3.0625 30.4113L13.6232 38.9676L13.6146 38.7141L32.9072 27.6643C32.8499 28.0518 32.7958 28.2195 32.7417 28.3871C32.6875 28.5548 32.6334 28.7225 32.5761 29.1102C32.9072 30.2722 32.2376 31.6819 30.546 32.7391L15.8214 41.1595C15.3034 41.4384 14.738 41.62 14.1827 41.6506Z" fill="#272C56"/>
</g>
<path fill-rule="evenodd" clip-rule="evenodd" d="M2.63977 31.2387L2.05027 29.0294L2.03418 28.5435L13.255 38.2539L13.2352 40.9168C12.5761 40.8391 11.8687 40.5239 11.144 39.9712C8.60021 37.6804 6.65524 35.929 4.11253 33.6385C3.44723 33.0399 2.79864 32.1268 2.63978 31.2387L2.63977 31.2387Z" fill="#D9DEEB"/>
<path fill-rule="evenodd" clip-rule="evenodd" d="M13.2207 40.9179L13.2408 37.8985L33.2554 27.696C33.1023 28.49 32.9997 28.3777 32.8466 29.1718C32.5395 30.7662 31.3262 31.6444 29.9079 32.4379L15.4554 40.5169C14.7417 40.8566 13.9527 41.0274 13.2207 40.9178L13.2207 40.9179Z" fill="#C2C8D9"/>
<path fill-rule="evenodd" clip-rule="evenodd" d="M33.2555 27.716L21.2721 18.4753C15.0069 21.5889 9.28676 24.4313 3.02124 27.545C1.36649 28.3371 1.89762 29.5017 3.36812 30.7876C6.20633 33.2694 8.04843 34.8804 10.8863 37.3626C12.8079 39.042 14.3122 38.7852 16.5048 37.5041L33.2555 27.716L33.2555 27.716Z" fill="#DFE9EF"/>
<path fill-rule="evenodd" clip-rule="evenodd" d="M33.2555 27.716L21.2721 18.4753C15.0069 21.5889 9.28676 24.4313 3.02124 27.545C1.36649 28.3371 1.89762 29.5017 3.36812 30.7876C6.20633 33.2694 8.04843 34.8804 10.8863 37.3626C12.8079 39.042 14.3122 38.7852 16.5048 37.5041L33.2555 27.716L33.2555 27.716Z" fill="url(#paint0_linear_1:1066)"/>
<path fill-rule="evenodd" clip-rule="evenodd" d="M26.1828 9.98572L14.2715 0.610107L21.2693 18.4691L33.2553 27.696L26.1828 9.98572Z" fill="white"/>
<path fill-rule="evenodd" clip-rule="evenodd" d="M27.628 9.06769L26.1793 10.0004L14.2715 0.597194C14.7792 0.398233 15.2869 0.199272 15.7945 0C20.4181 2.21815 24.1638 5.47693 27.628 9.06767V9.06769Z" fill="#D9DEEB"/>
<path fill-rule="evenodd" clip-rule="evenodd" d="M33.2559 27.6961C32.6045 21.8367 30.0148 13.7664 27.6225 9.05127L26.1709 9.98148L33.2559 27.6961V27.6961Z" fill="#C2C8D9"/>
<path fill-rule="evenodd" clip-rule="evenodd" d="M20.8529 20.2383L4.16992 28.6383L13.5068 36.7135L29.8998 27.5046L20.8529 20.2383Z" fill="#2C3E7B"/>
<g opacity="0.8">
<path fill-rule="evenodd" clip-rule="evenodd" d="M25.4582 28.6157L19.737 24.1365L9.05078 29.7245L14.5933 34.7132L25.4582 28.6157Z" fill="#E7F5FA"/>
<path fill-rule="evenodd" clip-rule="evenodd" d="M25.4582 28.6157L19.737 24.1365L9.05078 29.7245L14.5933 34.7132L25.4582 28.6157Z" fill="url(#paint1_linear_1:1066)"/>
</g>
<path opacity="0.5" fill-rule="evenodd" clip-rule="evenodd" d="M23.8151 27.3122L19.7448 24.1365L10.0532 29.2152L14.5289 33.3561C14.5289 33.3561 21.6759 28.4985 23.8151 27.3122Z" fill="#A3C2CD"/>
<path fill-rule="evenodd" clip-rule="evenodd" d="M25.5262 26.3445L19.7975 21.8652L8.94922 27.2865L14.6468 32.4419L25.5262 26.3445Z" fill="white"/>
<path fill-rule="evenodd" clip-rule="evenodd" d="M25.5649 10.7384L15.8994 2.84741L21.7506 17.7772L31.5272 25.5941L25.5649 10.7384Z" fill="#5C9CFC"/>
<path fill-rule="evenodd" clip-rule="evenodd" d="M25.5649 10.7384L15.8994 2.84741L21.7506 17.7772L31.5272 25.5941L25.5649 10.7384Z" fill="url(#paint2_linear_1:1066)"/>
<g clip-path="url(#clip0_1:1066)">
<path fill-rule="evenodd" clip-rule="evenodd" d="M15.4189 28.4846C16.278 28.4846 16.9751 28.9608 16.9751 29.5449C16.9751 30.134 16.278 30.6053 15.4189 30.6053C14.5599 30.6053 13.8628 30.134 13.8628 29.5449C13.8628 28.9608 14.5599 28.4846 15.4189 28.4846Z" fill="#ED683D"/>
<path fill-rule="evenodd" clip-rule="evenodd" d="M19.7243 23.7671C19.7979 23.6935 19.9059 23.6738 19.9894 23.7377L23.1507 26.2363C23.2293 26.3001 23.2538 26.4228 23.1802 26.4965C23.1065 26.5701 22.9985 26.5898 22.92 26.5308L19.7586 24.0273C19.6752 23.9635 19.6556 23.8407 19.7243 23.7671Z" fill="#C6D2DE"/>
<path fill-rule="evenodd" clip-rule="evenodd" d="M14.9621 25.544C15.0357 25.4704 15.1437 25.4507 15.2272 25.5097L18.3885 28.0132C18.4671 28.077 18.4916 28.1998 18.418 28.2734C18.3443 28.347 18.2363 28.3667 18.1578 28.3028L14.9964 25.8042C14.913 25.7404 14.8933 25.6177 14.9621 25.544Z" fill="#C6D2DE"/>
<path fill-rule="evenodd" clip-rule="evenodd" d="M18.2464 23.8064C18.32 23.7328 18.428 23.7131 18.5115 23.777L22.3061 26.7567C22.3846 26.8156 22.4092 26.9432 22.3355 27.0169C22.2619 27.0905 22.1539 27.1101 22.0754 27.0463L18.2808 24.0715C18.1973 24.0077 18.1728 23.8801 18.2464 23.8064Z" fill="#C6D2DE"/>
<path fill-rule="evenodd" clip-rule="evenodd" d="M17.1721 24.2923C17.2408 24.2186 17.3537 24.199 17.4322 24.2628L21.2907 27.3358C21.3741 27.3996 21.3938 27.5223 21.325 27.596C21.2514 27.6696 21.1385 27.6892 21.0599 27.6254L17.2015 24.5573C17.1181 24.4935 17.0984 24.3659 17.1721 24.2923Z" fill="#C6D2DE"/>
<path fill-rule="evenodd" clip-rule="evenodd" d="M16.0866 24.9009C16.1602 24.8322 16.2731 24.8077 16.3517 24.8715L20.2101 27.9445C20.2935 28.0083 20.3132 28.131 20.2395 28.2046C20.1708 28.2783 20.0579 28.2979 19.9794 28.2341L16.1209 25.166C16.0375 25.1022 16.0179 24.9746 16.0866 24.9009Z" fill="#C6D2DE"/>
</g>
<path d="M53.9241 27.1889C56.8167 27.1889 58.6004 25.7346 58.6004 23.4366V23.4286C58.6004 21.6207 57.5318 20.6405 55.0811 20.1343L53.8518 19.8852C52.4859 19.604 51.9234 19.154 51.9234 18.3988V18.3907C51.9234 17.5229 52.7189 16.9766 53.9161 16.9685C55.1374 16.9685 55.9409 17.5471 56.0775 18.3746L56.0935 18.4711H58.3754L58.3674 18.3666C58.2147 16.4302 56.6238 15 53.9161 15C51.3449 15 49.4969 16.4222 49.4969 18.5755V18.5836C49.4969 20.3432 50.5334 21.4681 52.9439 21.9582L54.1652 22.2073C55.6034 22.5046 56.1739 22.9304 56.1739 23.6937V23.7018C56.1739 24.5936 55.282 25.2123 53.9884 25.2123C52.6305 25.2123 51.6904 24.6258 51.602 23.758L51.594 23.6777H49.2559L49.2639 23.8062C49.4005 25.8631 51.1521 27.1889 53.9241 27.1889Z" fill="black"/>
<path d="M67.7984 27.1889C70.5945 27.1889 72.5792 25.5337 72.8282 23.1072L72.8363 23.0188H70.474L70.458 23.0831C70.2008 24.3205 69.1965 25.132 67.8064 25.132C65.9745 25.132 64.8416 23.5893 64.8416 21.0985V21.0824C64.8416 18.5916 65.9745 17.0569 67.7984 17.0569C69.1804 17.0569 70.2169 17.9408 70.466 19.2424V19.2987H72.8282V19.2022C72.6033 16.7516 70.5463 15 67.7984 15C64.4318 15 62.3588 17.3221 62.3588 21.0824V21.0985C62.3588 24.8588 64.4398 27.1889 67.7984 27.1889Z" fill="black"/>
<path d="M75.8474 26.8916H78.3945L79.2542 24.0794H83.344L84.2037 26.8916H86.7588L82.7253 15.2973H79.8729L75.8474 26.8916ZM81.2308 17.6113H81.3754L82.7896 22.2635H79.8086L81.2308 17.6113Z" fill="black"/>
<path d="M90.702 26.8916H93.024V19.4754H93.1526L98.5199 26.8916H100.529V15.2973H98.2065V22.6813H98.078L92.7268 15.2973H90.702V26.8916Z" fill="black"/>
<path d="M105.324 26.8916H107.646V19.4754H107.774L113.141 26.8916H115.15V15.2973H112.828V22.6813H112.7L107.348 15.2973H105.324V26.8916Z" fill="black"/>
<path d="M119.945 26.8916H127.626V24.8909H122.372V21.9582H127.329V20.0941H122.372V17.298H127.626V15.2973H119.945V26.8916Z" fill="black"/>
<path d="M132.156 26.8916H134.583V22.6492H136.567L138.729 26.8916H141.477L139.034 22.2876C140.36 21.7654 141.131 20.4878 141.131 19.0014V18.9853C141.131 16.7034 139.621 15.2973 136.985 15.2973H132.156V26.8916ZM134.583 20.8815V17.1935H136.688C137.901 17.1935 138.648 17.9167 138.648 19.0335V19.0496C138.648 20.1905 137.933 20.8815 136.72 20.8815H134.583Z" fill="black"/>
<path d="M151.846 26.8916H159.029V25.59H153.292V21.6047H158.732V20.3191H153.292V16.5989H159.029V15.2973H151.846V26.8916Z" fill="black"/>
<path d="M162.86 26.8916H164.499L167.624 22.2635H167.672L170.758 26.8916H172.493L168.572 21.1386V21.1065L172.582 15.2973H170.935L167.801 19.9656H167.753L164.651 15.2973H162.908L166.813 21.0342V21.0663L162.86 26.8916Z" fill="black"/>
<path d="M176.766 26.8916H178.212V22.7537H181.137C183.314 22.7537 184.857 21.219 184.857 19.0174V19.0014C184.857 16.7998 183.314 15.2973 181.137 15.2973H176.766V26.8916ZM180.767 16.5829C182.423 16.5829 183.379 17.4908 183.379 19.0174V19.0335C183.379 20.5601 182.423 21.4681 180.767 21.4681H178.212V16.5829H180.767Z" fill="black"/>
<path d="M189.202 26.8916H190.648V22.3037H193.501L195.984 26.8916H197.679L194.995 22.0787C196.45 21.6207 197.325 20.3673 197.325 18.7603V18.7442C197.325 16.6632 195.863 15.2973 193.629 15.2973H189.202V26.8916ZM190.648 21.0181V16.5829H193.436C194.931 16.5829 195.831 17.4105 195.831 18.7925V18.8085C195.831 20.2227 194.987 21.0181 193.501 21.0181H190.648Z" fill="black"/>
<path d="M201.927 26.8916H209.111V25.59H203.374V21.6047H208.813V20.3191H203.374V16.5989H209.111V15.2973H201.927V26.8916Z" fill="black"/>
<path d="M217.505 27.1648C220.092 27.1648 221.788 25.8149 221.788 23.6455V23.6375C221.788 21.9662 220.832 20.994 218.413 20.4557L217.127 20.1664C215.553 19.8209 214.918 19.1942 214.918 18.2702V18.2622C214.918 17.0489 216.035 16.3659 217.481 16.3579C218.992 16.3499 219.956 17.1051 220.116 18.1256L220.132 18.23H221.579L221.571 18.1175C221.45 16.39 219.835 15.0241 217.521 15.0241C215.127 15.0241 213.447 16.382 213.439 18.3023V18.3104C213.439 19.9897 214.444 21.0583 216.766 21.5725L218.051 21.8537C219.642 22.2073 220.309 22.8661 220.309 23.8303V23.8384C220.309 25.0195 219.16 25.831 217.585 25.831C215.914 25.831 214.709 25.0998 214.604 23.9428L214.596 23.8544H213.15L213.158 23.9428C213.327 25.831 214.966 27.1648 217.505 27.1648Z" fill="black"/>
<path d="M229.973 27.1648C232.561 27.1648 234.256 25.8149 234.256 23.6455V23.6375C234.256 21.9662 233.3 20.994 230.881 20.4557L229.596 20.1664C228.021 19.8209 227.386 19.1942 227.386 18.2702V18.2622C227.386 17.0489 228.503 16.3659 229.949 16.3579C231.46 16.3499 232.424 17.1051 232.585 18.1256L232.601 18.23H234.047L234.039 18.1175C233.918 16.39 232.303 15.0241 229.989 15.0241C227.595 15.0241 225.916 16.382 225.908 18.3023V18.3104C225.908 19.9897 226.912 21.0583 229.234 21.5725L230.52 21.8537C232.111 22.2073 232.777 22.8661 232.777 23.8303V23.8384C232.777 25.0195 231.628 25.831 230.054 25.831C228.382 25.831 227.177 25.0998 227.073 23.9428L227.065 23.8544H225.618L225.626 23.9428C225.795 25.831 227.434 27.1648 229.973 27.1648Z" fill="black"/>
<defs>
<filter id="filter0_f_1:1066" x="0.00186324" y="24.6037" width="35.966" height="20.3959" filterUnits="userSpaceOnUse" color-interpolation-filters="sRGB">
<feFlood flood-opacity="0" result="BackgroundImageFix"/>
<feBlend mode="normal" in="SourceGraphic" in2="BackgroundImageFix" result="shape"/>
<feGaussianBlur stdDeviation="1.53032" result="effect1_foregroundBlur_1:1066"/>
</filter>
<linearGradient id="paint0_linear_1:1066" x1="12.2377" y1="22.9952" x2="20.6957" y2="37.4619" gradientUnits="userSpaceOnUse">
<stop stop-color="white"/>
<stop offset="1" stop-color="white" stop-opacity="0"/>
</linearGradient>
<linearGradient id="paint1_linear_1:1066" x1="14.4928" y1="35.1182" x2="19.3033" y2="26.2726" gradientUnits="userSpaceOnUse">
<stop stop-color="white"/>
<stop offset="1" stop-color="white" stop-opacity="0"/>
</linearGradient>
<linearGradient id="paint2_linear_1:1066" x1="9.23006" y1="-7.3456" x2="30.9606" y2="25.7093" gradientUnits="userSpaceOnUse">
<stop stop-color="#2C3E7B" stop-opacity="0"/>
<stop offset="1" stop-color="#2C3E7B"/>
</linearGradient>
<clipPath id="clip0_1:1066">
<rect width="9.36134" height="6.90919" fill="white" transform="translate(13.8633 23.6973)"/>
</clipPath>
</defs>
</svg>
